<?xml version="1.0" standalone="no"?>
<!DOCTYPE svg PUBLIC "-//W3C//DTD SVG 20010904//EN"
 "http://www.w3.org/TR/2001/REC-SVG-20010904/DTD/svg10.dtd">
<svg version="1.0" xmlns="http://www.w3.org/2000/svg"
 width="150.000000pt" height="150.000000pt" viewBox="0 0 150.000000 150.000000"
 preserveAspectRatio="xMidYMid meet">
<metadata>
Created by potrace 1.11, written by Peter Selinger 2001-2013
</metadata>
<g transform="translate(0.000000,150.000000) scale(0.100000,-0.100000)"
fill="#000000" stroke="none">
<path d="M0 752 c0 -710 1 -752 18 -751 10 0 12 3 4 6 -9 3 -12 62 -12 244 0
272 -2 263 104 578 63 188 110 275 206 389 92 108 172 172 214 172 37 0 115
-22 183 -51 l46 -20 -40 -42 c-22 -23 -105 -118 -183 -212 -206 -244 -292
-336 -383 -412 -129 -108 -165 -190 -118 -267 11 -17 68 -78 128 -136 76 -74
118 -124 141 -168 18 -34 30 -67 27 -72 -4 -7 184 -9 557 -8 l563 3 -514 2
c-365 2 -518 6 -528 15 -7 6 -38 55 -68 108 -30 54 -75 125 -100 158 -54 72
-75 119 -75 169 0 60 49 150 131 238 41 44 121 134 179 200 131 151 350 375
365 375 19 0 179 -104 273 -177 106 -82 260 -235 286 -284 17 -33 18 -40 6
-70 -35 -84 -224 -237 -430 -348 -148 -79 -374 -171 -421 -171 -30 0 -43 70
-43 240 0 187 7 208 105 287 81 66 123 87 174 87 64 -1 174 -65 201 -116 22
-42 17 -67 -18 -101 -28 -26 -29 -28 -8 -17 61 31 100 86 100 143 0 46 -46
108 -113 152 -93 61 -102 60 -252 -45 -145 -101 -210 -165 -227 -225 -18 -60
-17 -377 1 -399 7 -9 43 -31 80 -49 l66 -32 235 -3 c129 -2 259 -1 288 3 47 6
55 10 81 49 43 61 129 239 196 401 32 77 59 142 61 144 2 2 4 -160 4 -362 0
-340 -1 -366 -17 -370 -14 -4 -12 -5 5 -6 l22 -1 0 745 c0 410 -3 745 -7 745
-5 0 -7 -161 -5 -357 1 -215 -1 -354 -7 -348 -5 6 -56 73 -114 151 -156 209
-310 364 -401 405 -14 7 -26 16 -26 20 0 5 34 34 75 66 l75 58 -76 3 -76 3
-44 -41 c-24 -22 -47 -40 -52 -40 -5 0 -35 9 -66 20 -90 31 -263 60 -356 60
l-85 0 -26 -43 c-84 -135 -208 -468 -273 -732 l-25 -100 0 439 c0 241 -3 441
-6 444 -3 3 -5 -333 -5 -746z m1340 -248 c0 -3 -16 -26 -35 -51 -19 -25 -40
-63 -47 -84 -15 -53 -35 -68 -105 -81 -70 -13 -113 -5 -113 20 0 19 49 70 110
114 78 57 190 105 190 82z"/>
<path d="M790 631 c-13 -25 -13 -27 6 -45 15 -16 104 -23 104 -9 0 3 -11 21
-26 40 -29 38 -67 44 -84 14z"/>
<path d="M138 3 c34 -2 88 -2 120 0 31 2 3 3 -63 3 -66 0 -92 -1 -57 -3z"/>
</g>
</svg>
